<svg width="100" height="100" viewBox="0 0 36 37" fill="none" xmlns="http://www.w3.org/2000/svg">
<path d="M0 7.4C0 5.365 1.8 3.7 4 3.7H32C33.0609 3.7 34.0783 4.08982 34.8284 4.7837C35.5786 5.47759 36 6.4187 36 7.4V33.3C36 34.2813 35.5786 35.2224 34.8284 35.9163C34.0783 36.6102 33.0609 37 32 37H4C2.93913 37 1.92172 36.6102 1.17157 35.9163C0.421427 35.2224 0 34.2813 0 33.3V7.4ZM4 11.1V33.3H32V11.1H4ZM8 0H12V3.7H8V0ZM24 0H28V3.7H24V0ZM8 16.65H12V20.35H8V16.65ZM8 24.05H12V27.75H8V24.05ZM16 16.65H20V20.35H16V16.65ZM16 24.05H20V27.75H16V24.05ZM24 16.65H28V20.35H24V16.65ZM24 24.05H28V27.75H24V24.05Z" fill="#000000"/>
</svg>